<?xml version="1.0" encoding="UTF-8" standalone="no"?>
<!DOCTYPE svg PUBLIC "-//W3C//DTD SVG 1.1//EN"
 "http://www.w3.org/Graphics/SVG/1.1/DTD/svg11.dtd">
<!-- Generated by graphviz version 2.40.1 (20161225.0304)
 -->
<!-- Title: controllers_diagram Pages: 1 -->
<svg width="316pt" height="253pt"
 viewBox="0.00 0.00 315.64 253.00" xmlns="http://www.w3.org/2000/svg" xmlns:xlink="http://www.w3.org/1999/xlink">
<g id="graph0" class="graph" transform="scale(1 1) rotate(0) translate(4 249)">
<title>controllers_diagram</title>
<polygon fill="transparent" stroke="transparent" points="-4,4 -4,-249 311.6416,-249 311.6416,4 -4,4"/>
<!-- _diagram_info -->
<g id="node1" class="node">
<title>_diagram_info</title>
<text text-anchor="start" x="8" y="-58.6" font-family="Times,serif" font-size="13.00" fill="#000000">Controllers diagram</text>
<text text-anchor="start" x="8" y="-45.6" font-family="Times,serif" font-size="13.00" fill="#000000">Date: Oct 28 2017 &#45; 16:00</text>
<text text-anchor="start" x="8" y="-32.6" font-family="Times,serif" font-size="13.00" fill="#000000">Migration version: 20171027233745</text>
<text text-anchor="start" x="8" y="-19.6" font-family="Times,serif" font-size="13.00" fill="#000000">Generated by RailRoady 1.5.3</text>
<text text-anchor="start" x="8" y="-6.6" font-family="Times,serif" font-size="13.00" fill="#000000">http://railroady.prestonlee.com</text>
</g>
<!-- ApplicationController -->
<g id="node2" class="node">
<title>ApplicationController</title>
<path fill="none" stroke="#000000" d="M180,-98.5C180,-98.5 295.6416,-98.5 295.6416,-98.5 301.6416,-98.5 307.6416,-104.5 307.6416,-110.5 307.6416,-110.5 307.6416,-178.5 307.6416,-178.5 307.6416,-184.5 301.6416,-190.5 295.6416,-190.5 295.6416,-190.5 180,-190.5 180,-190.5 174,-190.5 168,-184.5 168,-178.5 168,-178.5 168,-110.5 168,-110.5 168,-104.5 174,-98.5 180,-98.5"/>
<text text-anchor="middle" x="237.8208" y="-175.3" font-family="Times,serif" font-size="14.00" fill="#000000">ApplicationController</text>
<polyline fill="none" stroke="#000000" points="168,-168.5 307.6416,-168.5 "/>
<polyline fill="none" stroke="#000000" points="168,-144.5 307.6416,-144.5 "/>
<polyline fill="none" stroke="#000000" points="168,-120.5 307.6416,-120.5 "/>
<text text-anchor="start" x="176" y="-105.3" font-family="Times,serif" font-size="14.00" fill="#000000">_layout</text>
</g>
<!-- GamesController -->
<g id="node3" class="node">
<title>GamesController</title>
<path fill="none" stroke="#000000" d="M26,-140.5C26,-140.5 121.4209,-140.5 121.4209,-140.5 127.4209,-140.5 133.4209,-146.5 133.4209,-152.5 133.4209,-152.5 133.4209,-232.5 133.4209,-232.5 133.4209,-238.5 127.4209,-244.5 121.4209,-244.5 121.4209,-244.5 26,-244.5 26,-244.5 20,-244.5 14,-238.5 14,-232.5 14,-232.5 14,-152.5 14,-152.5 14,-146.5 20,-140.5 26,-140.5"/>
<text text-anchor="middle" x="73.7104" y="-229.3" font-family="Times,serif" font-size="14.00" fill="#000000">GamesController</text>
<polyline fill="none" stroke="#000000" points="14,-222.5 133.4209,-222.5 "/>
<text text-anchor="start" x="22" y="-207.3" font-family="Times,serif" font-size="14.00" fill="#000000">get_todays_games</text>
<text text-anchor="start" x="22" y="-193.3" font-family="Times,serif" font-size="14.00" fill="#000000">index</text>
<polyline fill="none" stroke="#000000" points="14,-186.5 133.4209,-186.5 "/>
<polyline fill="none" stroke="#000000" points="14,-162.5 133.4209,-162.5 "/>
<text text-anchor="start" x="22" y="-147.3" font-family="Times,serif" font-size="14.00" fill="#000000">_layout</text>
</g>
</g>
</svg>
