<?xml version="1.0" encoding="UTF-8" standalone="no"?>
<!DOCTYPE svg PUBLIC "-//W3C//DTD SVG 1.1//EN"
 "http://www.w3.org/Graphics/SVG/1.1/DTD/svg11.dtd">
<!-- Generated by graphviz version 2.40.1 (20161225.0304)
 -->
<!-- Title: controllers_diagram Pages: 1 -->
<svg width="521pt" height="419pt"
 viewBox="0.00 0.00 520.90 419.00" xmlns="http://www.w3.org/2000/svg" xmlns:xlink="http://www.w3.org/1999/xlink">
<g id="graph0" class="graph" transform="scale(1 1) rotate(0) translate(4 415)">
<title>controllers_diagram</title>
<polygon fill="transparent" stroke="transparent" points="-4,4 -4,-415 516.8994,-415 516.8994,4 -4,4"/>
<!-- _diagram_info -->
<g id="node1" class="node">
<title>_diagram_info</title>
<text text-anchor="start" x="314" y="-330.6" font-family="Times,serif" font-size="13.00" fill="#000000">Controllers diagram</text>
<text text-anchor="start" x="314" y="-317.6" font-family="Times,serif" font-size="13.00" fill="#000000">Date: Dec 13 2017 &#45; 16:09</text>
<text text-anchor="start" x="314" y="-304.6" font-family="Times,serif" font-size="13.00" fill="#000000">Migration version: 20171129235053</text>
<text text-anchor="start" x="314" y="-291.6" font-family="Times,serif" font-size="13.00" fill="#000000">Generated by RailRoady 1.5.3</text>
<text text-anchor="start" x="314" y="-278.6" font-family="Times,serif" font-size="13.00" fill="#000000">http://railroady.prestonlee.com</text>
</g>
<!-- ApplicationController -->
<g id="node2" class="node">
<title>ApplicationController</title>
<path fill="none" stroke="#000000" d="M148,-272.5C148,-272.5 263.6416,-272.5 263.6416,-272.5 269.6416,-272.5 275.6416,-278.5 275.6416,-284.5 275.6416,-284.5 275.6416,-352.5 275.6416,-352.5 275.6416,-358.5 269.6416,-364.5 263.6416,-364.5 263.6416,-364.5 148,-364.5 148,-364.5 142,-364.5 136,-358.5 136,-352.5 136,-352.5 136,-284.5 136,-284.5 136,-278.5 142,-272.5 148,-272.5"/>
<text text-anchor="middle" x="205.8208" y="-349.3" font-family="Times,serif" font-size="14.00" fill="#000000">ApplicationController</text>
<polyline fill="none" stroke="#000000" points="136,-342.5 275.6416,-342.5 "/>
<polyline fill="none" stroke="#000000" points="136,-318.5 275.6416,-318.5 "/>
<polyline fill="none" stroke="#000000" points="136,-294.5 275.6416,-294.5 "/>
<text text-anchor="start" x="144" y="-279.3" font-family="Times,serif" font-size="14.00" fill="#000000">_layout</text>
</g>
<!-- CommentsController -->
<g id="node3" class="node">
<title>CommentsController</title>
<path fill="none" stroke="#000000" d="M284,-34.5C284,-34.5 394.2139,-34.5 394.2139,-34.5 400.2139,-34.5 406.2139,-40.5 406.2139,-46.5 406.2139,-46.5 406.2139,-224.5 406.2139,-224.5 406.2139,-230.5 400.2139,-236.5 394.2139,-236.5 394.2139,-236.5 284,-236.5 284,-236.5 278,-236.5 272,-230.5 272,-224.5 272,-224.5 272,-46.5 272,-46.5 272,-40.5 278,-34.5 284,-34.5"/>
<text text-anchor="middle" x="339.1069" y="-221.3" font-family="Times,serif" font-size="14.00" fill="#000000">CommentsController</text>
<polyline fill="none" stroke="#000000" points="272,-214.5 406.2139,-214.5 "/>
<text text-anchor="start" x="280" y="-199.3" font-family="Times,serif" font-size="14.00" fill="#000000">create</text>
<text text-anchor="start" x="280" y="-185.3" font-family="Times,serif" font-size="14.00" fill="#000000">destroy</text>
<text text-anchor="start" x="280" y="-171.3" font-family="Times,serif" font-size="14.00" fill="#000000">edit</text>
<text text-anchor="start" x="280" y="-157.3" font-family="Times,serif" font-size="14.00" fill="#000000">index</text>
<text text-anchor="start" x="280" y="-143.3" font-family="Times,serif" font-size="14.00" fill="#000000">new</text>
<text text-anchor="start" x="280" y="-129.3" font-family="Times,serif" font-size="14.00" fill="#000000">show</text>
<text text-anchor="start" x="280" y="-115.3" font-family="Times,serif" font-size="14.00" fill="#000000">update</text>
<polyline fill="none" stroke="#000000" points="272,-108.5 406.2139,-108.5 "/>
<polyline fill="none" stroke="#000000" points="272,-84.5 406.2139,-84.5 "/>
<text text-anchor="start" x="280" y="-69.3" font-family="Times,serif" font-size="14.00" fill="#000000">_layout</text>
<text text-anchor="start" x="280" y="-55.3" font-family="Times,serif" font-size="14.00" fill="#000000">comment_params</text>
<text text-anchor="start" x="280" y="-41.3" font-family="Times,serif" font-size="14.00" fill="#000000">set_comment</text>
</g>
<!-- GamesController -->
<g id="node4" class="node">
<title>GamesController</title>
<path fill="none" stroke="#000000" d="M97,-.5C97,-.5 224.3105,-.5 224.3105,-.5 230.3105,-.5 236.3105,-6.5 236.3105,-12.5 236.3105,-12.5 236.3105,-232.5 236.3105,-232.5 236.3105,-238.5 230.3105,-244.5 224.3105,-244.5 224.3105,-244.5 97,-244.5 97,-244.5 91,-244.5 85,-238.5 85,-232.5 85,-232.5 85,-12.5 85,-12.5 85,-6.5 91,-.5 97,-.5"/>
<text text-anchor="middle" x="160.6553" y="-229.3" font-family="Times,serif" font-size="14.00" fill="#000000">GamesController</text>
<polyline fill="none" stroke="#000000" points="85,-222.5 236.3105,-222.5 "/>
<text text-anchor="start" x="93" y="-207.3" font-family="Times,serif" font-size="14.00" fill="#000000">add_game_comment</text>
<text text-anchor="start" x="93" y="-193.3" font-family="Times,serif" font-size="14.00" fill="#000000">create</text>
<text text-anchor="start" x="93" y="-179.3" font-family="Times,serif" font-size="14.00" fill="#000000">destroy</text>
<text text-anchor="start" x="93" y="-165.3" font-family="Times,serif" font-size="14.00" fill="#000000">downvote_comment</text>
<text text-anchor="start" x="93" y="-151.3" font-family="Times,serif" font-size="14.00" fill="#000000">flag_comment</text>
<text text-anchor="start" x="93" y="-137.3" font-family="Times,serif" font-size="14.00" fill="#000000">get_game_comments</text>
<text text-anchor="start" x="93" y="-123.3" font-family="Times,serif" font-size="14.00" fill="#000000">get_todays_games</text>
<text text-anchor="start" x="93" y="-109.3" font-family="Times,serif" font-size="14.00" fill="#000000">index</text>
<text text-anchor="start" x="93" y="-95.3" font-family="Times,serif" font-size="14.00" fill="#000000">un_downvote_comment</text>
<text text-anchor="start" x="93" y="-81.3" font-family="Times,serif" font-size="14.00" fill="#000000">un_upvote_comment</text>
<text text-anchor="start" x="93" y="-67.3" font-family="Times,serif" font-size="14.00" fill="#000000">update</text>
<text text-anchor="start" x="93" y="-53.3" font-family="Times,serif" font-size="14.00" fill="#000000">upvote_comment</text>
<polyline fill="none" stroke="#000000" points="85,-46.5 236.3105,-46.5 "/>
<polyline fill="none" stroke="#000000" points="85,-22.5 236.3105,-22.5 "/>
<text text-anchor="start" x="93" y="-7.3" font-family="Times,serif" font-size="14.00" fill="#000000">_layout</text>
</g>
<!-- UsersController -->
<g id="node5" class="node">
<title>UsersController</title>
<path fill="none" stroke="#000000" d="M12,-306.5C12,-306.5 93.4277,-306.5 93.4277,-306.5 99.4277,-306.5 105.4277,-312.5 105.4277,-318.5 105.4277,-318.5 105.4277,-398.5 105.4277,-398.5 105.4277,-404.5 99.4277,-410.5 93.4277,-410.5 93.4277,-410.5 12,-410.5 12,-410.5 6,-410.5 0,-404.5 0,-398.5 0,-398.5 0,-318.5 0,-318.5 0,-312.5 6,-306.5 12,-306.5"/>
<text text-anchor="middle" x="52.7139" y="-395.3" font-family="Times,serif" font-size="14.00" fill="#000000">UsersController</text>
<polyline fill="none" stroke="#000000" points="0,-388.5 105.4277,-388.5 "/>
<text text-anchor="start" x="8" y="-373.3" font-family="Times,serif" font-size="14.00" fill="#000000">create</text>
<text text-anchor="start" x="8" y="-359.3" font-family="Times,serif" font-size="14.00" fill="#000000">show</text>
<polyline fill="none" stroke="#000000" points="0,-352.5 105.4277,-352.5 "/>
<polyline fill="none" stroke="#000000" points="0,-328.5 105.4277,-328.5 "/>
<text text-anchor="start" x="8" y="-313.3" font-family="Times,serif" font-size="14.00" fill="#000000">_layout</text>
</g>
</g>
</svg>
