<?xml version="1.0" encoding="UTF-8" standalone="no"?>
<!DOCTYPE svg PUBLIC "-//W3C//DTD SVG 1.1//EN"
 "http://www.w3.org/Graphics/SVG/1.1/DTD/svg11.dtd">
<!-- Generated by graphviz version 2.40.1 (20161225.0304)
 -->
<!-- Title: models_diagram Pages: 1 -->
<svg width="593pt" height="526pt"
 viewBox="0.00 0.00 592.73 526.00" xmlns="http://www.w3.org/2000/svg" xmlns:xlink="http://www.w3.org/1999/xlink">
<g id="graph0" class="graph" transform="scale(1 1) rotate(0) translate(4 522)">
<title>models_diagram</title>
<polygon fill="transparent" stroke="transparent" points="-4,4 -4,-522 588.7275,-522 588.7275,4 -4,4"/>
<!-- _diagram_info -->
<g id="node1" class="node">
<title>_diagram_info</title>
<text text-anchor="start" x="8" y="-398.6" font-family="Times,serif" font-size="13.00" fill="#000000">Models diagram</text>
<text text-anchor="start" x="8" y="-385.6" font-family="Times,serif" font-size="13.00" fill="#000000">Date: Dec 13 2017 &#45; 16:08</text>
<text text-anchor="start" x="8" y="-372.6" font-family="Times,serif" font-size="13.00" fill="#000000">Migration version: 20171129235053</text>
<text text-anchor="start" x="8" y="-359.6" font-family="Times,serif" font-size="13.00" fill="#000000">Generated by RailRoady 1.5.3</text>
<text text-anchor="start" x="8" y="-346.6" font-family="Times,serif" font-size="13.00" fill="#000000">http://railroady.prestonlee.com</text>
</g>
<!-- Comment -->
<g id="node2" class="node">
<title>Comment</title>
<path fill="none" stroke="#000000" d="M313.5132,-.5C313.5132,-.5 461.3862,-.5 461.3862,-.5 467.3862,-.5 473.3862,-6.5 473.3862,-12.5 473.3862,-12.5 473.3862,-186.5 473.3862,-186.5 473.3862,-192.5 467.3862,-198.5 461.3862,-198.5 461.3862,-198.5 313.5132,-198.5 313.5132,-198.5 307.5132,-198.5 301.5132,-192.5 301.5132,-186.5 301.5132,-186.5 301.5132,-12.5 301.5132,-12.5 301.5132,-6.5 307.5132,-.5 313.5132,-.5"/>
<text text-anchor="middle" x="387.4497" y="-183.3" font-family="Times,serif" font-size="14.00" fill="#000000">Comment</text>
<polyline fill="none" stroke="#000000" points="301.5132,-176.5 473.3862,-176.5 "/>
<text text-anchor="start" x="309.5132" y="-161.3" font-family="Times,serif" font-size="14.00" fill="#000000">id :INTEGER</text>
<text text-anchor="start" x="309.5132" y="-147.3" font-family="Times,serif" font-size="14.00" fill="#000000">title :varchar(50)</text>
<text text-anchor="start" x="309.5132" y="-133.3" font-family="Times,serif" font-size="14.00" fill="#000000">comment :text</text>
<text text-anchor="start" x="309.5132" y="-119.3" font-family="Times,serif" font-size="14.00" fill="#000000">commentable_id :integer</text>
<text text-anchor="start" x="309.5132" y="-105.3" font-family="Times,serif" font-size="14.00" fill="#000000">commentable_type :varchar</text>
<text text-anchor="start" x="309.5132" y="-91.3" font-family="Times,serif" font-size="14.00" fill="#000000">user_id :integer</text>
<text text-anchor="start" x="309.5132" y="-77.3" font-family="Times,serif" font-size="14.00" fill="#000000">role :varchar</text>
<text text-anchor="start" x="309.5132" y="-63.3" font-family="Times,serif" font-size="14.00" fill="#000000">created_at :datetime</text>
<text text-anchor="start" x="309.5132" y="-49.3" font-family="Times,serif" font-size="14.00" fill="#000000">updated_at :datetime</text>
<text text-anchor="start" x="309.5132" y="-35.3" font-family="Times,serif" font-size="14.00" fill="#000000">upvotes :integer</text>
<text text-anchor="start" x="309.5132" y="-21.3" font-family="Times,serif" font-size="14.00" fill="#000000">downvotes :integer</text>
<text text-anchor="start" x="309.5132" y="-7.3" font-family="Times,serif" font-size="14.00" fill="#000000">flags :integer</text>
</g>
<!-- Game -->
<g id="node3" class="node">
<title>Game</title>
<path fill="none" stroke="#000000" d="M237.0098,-284.5C237.0098,-284.5 349.8896,-284.5 349.8896,-284.5 355.8896,-284.5 361.8896,-290.5 361.8896,-296.5 361.8896,-296.5 361.8896,-456.5 361.8896,-456.5 361.8896,-462.5 355.8896,-468.5 349.8896,-468.5 349.8896,-468.5 237.0098,-468.5 237.0098,-468.5 231.0098,-468.5 225.0098,-462.5 225.0098,-456.5 225.0098,-456.5 225.0098,-296.5 225.0098,-296.5 225.0098,-290.5 231.0098,-284.5 237.0098,-284.5"/>
<text text-anchor="middle" x="293.4497" y="-453.3" font-family="Times,serif" font-size="14.00" fill="#000000">Game</text>
<polyline fill="none" stroke="#000000" points="225.0098,-446.5 361.8896,-446.5 "/>
<text text-anchor="start" x="233.0098" y="-431.3" font-family="Times,serif" font-size="14.00" fill="#000000">id :INTEGER</text>
<text text-anchor="start" x="233.0098" y="-417.3" font-family="Times,serif" font-size="14.00" fill="#000000">team1_name :varchar</text>
<text text-anchor="start" x="233.0098" y="-403.3" font-family="Times,serif" font-size="14.00" fill="#000000">team2_name :varchar</text>
<text text-anchor="start" x="233.0098" y="-389.3" font-family="Times,serif" font-size="14.00" fill="#000000">team1_city :varchar</text>
<text text-anchor="start" x="233.0098" y="-375.3" font-family="Times,serif" font-size="14.00" fill="#000000">team2_city :varchar</text>
<text text-anchor="start" x="233.0098" y="-361.3" font-family="Times,serif" font-size="14.00" fill="#000000">date :datetime</text>
<text text-anchor="start" x="233.0098" y="-347.3" font-family="Times,serif" font-size="14.00" fill="#000000">created_at :datetime</text>
<text text-anchor="start" x="233.0098" y="-333.3" font-family="Times,serif" font-size="14.00" fill="#000000">updated_at :datetime</text>
<text text-anchor="start" x="233.0098" y="-319.3" font-family="Times,serif" font-size="14.00" fill="#000000">game_city :varchar</text>
<text text-anchor="start" x="233.0098" y="-305.3" font-family="Times,serif" font-size="14.00" fill="#000000">game_state :varchar</text>
<text text-anchor="start" x="233.0098" y="-291.3" font-family="Times,serif" font-size="14.00" fill="#000000">game_arena :varchar</text>
</g>
<!-- Game&#45;&gt;Comment -->
<g id="edge1" class="edge">
<title>Game&#45;&gt;Comment</title>
<path fill="none" stroke="#ea8c7f" d="M327.387,-276.4934C334.8816,-254.408 342.8577,-230.9042 350.4664,-208.4827"/>
<ellipse fill="none" stroke="#ea8c7f" cx="326.0358" cy="-280.4752" rx="4" ry="4"/>
<polygon fill="#ea8c7f" stroke="#ea8c7f" points="350.4888,-208.4166 357.9637,-200.3931 352.0956,-203.6818 353.7023,-198.947 353.7023,-198.947 353.7023,-198.947 352.0956,-203.6818 349.441,-197.5009 350.4888,-208.4166 350.4888,-208.4166"/>
</g>
<!-- User -->
<g id="node4" class="node">
<title>User</title>
<path fill="none" stroke="#000000" d="M392.1719,-235.5C392.1719,-235.5 572.7275,-235.5 572.7275,-235.5 578.7275,-235.5 584.7275,-241.5 584.7275,-247.5 584.7275,-247.5 584.7275,-505.5 584.7275,-505.5 584.7275,-511.5 578.7275,-517.5 572.7275,-517.5 572.7275,-517.5 392.1719,-517.5 392.1719,-517.5 386.1719,-517.5 380.1719,-511.5 380.1719,-505.5 380.1719,-505.5 380.1719,-247.5 380.1719,-247.5 380.1719,-241.5 386.1719,-235.5 392.1719,-235.5"/>
<text text-anchor="middle" x="482.4497" y="-502.3" font-family="Times,serif" font-size="14.00" fill="#000000">User</text>
<polyline fill="none" stroke="#000000" points="380.1719,-495.5 584.7275,-495.5 "/>
<text text-anchor="start" x="388.1719" y="-480.3" font-family="Times,serif" font-size="14.00" fill="#000000">id :INTEGER</text>
<text text-anchor="start" x="388.1719" y="-466.3" font-family="Times,serif" font-size="14.00" fill="#000000">email :varchar</text>
<text text-anchor="start" x="388.1719" y="-452.3" font-family="Times,serif" font-size="14.00" fill="#000000">encrypted_password :varchar</text>
<text text-anchor="start" x="388.1719" y="-438.3" font-family="Times,serif" font-size="14.00" fill="#000000">reset_password_token :varchar</text>
<text text-anchor="start" x="388.1719" y="-424.3" font-family="Times,serif" font-size="14.00" fill="#000000">reset_password_sent_at :datetime</text>
<text text-anchor="start" x="388.1719" y="-410.3" font-family="Times,serif" font-size="14.00" fill="#000000">remember_created_at :datetime</text>
<text text-anchor="start" x="388.1719" y="-396.3" font-family="Times,serif" font-size="14.00" fill="#000000">sign_in_count :integer</text>
<text text-anchor="start" x="388.1719" y="-382.3" font-family="Times,serif" font-size="14.00" fill="#000000">current_sign_in_at :datetime</text>
<text text-anchor="start" x="388.1719" y="-368.3" font-family="Times,serif" font-size="14.00" fill="#000000">last_sign_in_at :datetime</text>
<text text-anchor="start" x="388.1719" y="-354.3" font-family="Times,serif" font-size="14.00" fill="#000000">current_sign_in_ip :varchar</text>
<text text-anchor="start" x="388.1719" y="-340.3" font-family="Times,serif" font-size="14.00" fill="#000000">last_sign_in_ip :varchar</text>
<text text-anchor="start" x="388.1719" y="-326.3" font-family="Times,serif" font-size="14.00" fill="#000000">created_at :datetime</text>
<text text-anchor="start" x="388.1719" y="-312.3" font-family="Times,serif" font-size="14.00" fill="#000000">updated_at :datetime</text>
<text text-anchor="start" x="388.1719" y="-298.3" font-family="Times,serif" font-size="14.00" fill="#000000">upvoted_comments :text</text>
<text text-anchor="start" x="388.1719" y="-284.3" font-family="Times,serif" font-size="14.00" fill="#000000">downvoted_comments :text</text>
<text text-anchor="start" x="388.1719" y="-270.3" font-family="Times,serif" font-size="14.00" fill="#000000">flagged_comments :text</text>
<text text-anchor="start" x="388.1719" y="-256.3" font-family="Times,serif" font-size="14.00" fill="#000000">moderator :boolean</text>
<text text-anchor="start" x="388.1719" y="-242.3" font-family="Times,serif" font-size="14.00" fill="#000000">mobile_token :varchar</text>
</g>
<!-- User&#45;&gt;Comment -->
<g id="edge2" class="edge">
<title>User&#45;&gt;Comment</title>
<path fill="none" stroke="#6da9bc" d="M431.3151,-227.4022C429.1411,-221.0634 426.9774,-214.7544 424.8422,-208.5287"/>
<ellipse fill="none" stroke="#6da9bc" cx="432.678" cy="-231.3762" rx="4" ry="4"/>
<polygon fill="#6da9bc" stroke="#6da9bc" points="424.7573,-208.2809 425.7697,-197.3619 423.1352,-203.5513 421.5131,-198.8218 421.5131,-198.8218 421.5131,-198.8218 423.1352,-203.5513 417.2565,-200.2816 424.7573,-208.2809 424.7573,-208.2809"/>
</g>
</g>
</svg>
