<?xml version="1.0" encoding="UTF-8" standalone="no"?>
<!DOCTYPE svg PUBLIC "-//W3C//DTD SVG 1.1//EN"
 "http://www.w3.org/Graphics/SVG/1.1/DTD/svg11.dtd">
<!-- Generated by graphviz version 2.40.1 (20161225.0304)
 -->
<!-- Title: models_diagram Pages: 1 -->
<svg width="593pt" height="414pt"
 viewBox="0.00 0.00 592.97 414.00" xmlns="http://www.w3.org/2000/svg" xmlns:xlink="http://www.w3.org/1999/xlink">
<g id="graph0" class="graph" transform="scale(1 1) rotate(0) translate(4 410)">
<title>models_diagram</title>
<polygon fill="transparent" stroke="transparent" points="-4,4 -4,-410 588.9656,-410 588.9656,4 -4,4"/>
<!-- _diagram_info -->
<g id="node1" class="node">
<title>_diagram_info</title>
<text text-anchor="start" x="8" y="-321.6" font-family="Times,serif" font-size="13.00" fill="#000000">Models diagram</text>
<text text-anchor="start" x="8" y="-308.6" font-family="Times,serif" font-size="13.00" fill="#000000">Date: Oct 28 2017 &#45; 16:00</text>
<text text-anchor="start" x="8" y="-295.6" font-family="Times,serif" font-size="13.00" fill="#000000">Migration version: 20171027233745</text>
<text text-anchor="start" x="8" y="-282.6" font-family="Times,serif" font-size="13.00" fill="#000000">Generated by RailRoady 1.5.3</text>
<text text-anchor="start" x="8" y="-269.6" font-family="Times,serif" font-size="13.00" fill="#000000">http://railroady.prestonlee.com</text>
</g>
<!-- Comment -->
<g id="node2" class="node">
<title>Comment</title>
<path fill="none" stroke="#000000" d="M313.7512,-.5C313.7512,-.5 461.6243,-.5 461.6243,-.5 467.6243,-.5 473.6243,-6.5 473.6243,-12.5 473.6243,-12.5 473.6243,-144.5 473.6243,-144.5 473.6243,-150.5 467.6243,-156.5 461.6243,-156.5 461.6243,-156.5 313.7512,-156.5 313.7512,-156.5 307.7512,-156.5 301.7512,-150.5 301.7512,-144.5 301.7512,-144.5 301.7512,-12.5 301.7512,-12.5 301.7512,-6.5 307.7512,-.5 313.7512,-.5"/>
<text text-anchor="middle" x="387.6877" y="-141.3" font-family="Times,serif" font-size="14.00" fill="#000000">Comment</text>
<polyline fill="none" stroke="#000000" points="301.7512,-134.5 473.6243,-134.5 "/>
<text text-anchor="start" x="309.7512" y="-119.3" font-family="Times,serif" font-size="14.00" fill="#000000">id :INTEGER</text>
<text text-anchor="start" x="309.7512" y="-105.3" font-family="Times,serif" font-size="14.00" fill="#000000">title :varchar(50)</text>
<text text-anchor="start" x="309.7512" y="-91.3" font-family="Times,serif" font-size="14.00" fill="#000000">comment :text</text>
<text text-anchor="start" x="309.7512" y="-77.3" font-family="Times,serif" font-size="14.00" fill="#000000">commentable_id :integer</text>
<text text-anchor="start" x="309.7512" y="-63.3" font-family="Times,serif" font-size="14.00" fill="#000000">commentable_type :varchar</text>
<text text-anchor="start" x="309.7512" y="-49.3" font-family="Times,serif" font-size="14.00" fill="#000000">user_id :integer</text>
<text text-anchor="start" x="309.7512" y="-35.3" font-family="Times,serif" font-size="14.00" fill="#000000">role :varchar</text>
<text text-anchor="start" x="309.7512" y="-21.3" font-family="Times,serif" font-size="14.00" fill="#000000">created_at :datetime</text>
<text text-anchor="start" x="309.7512" y="-7.3" font-family="Times,serif" font-size="14.00" fill="#000000">updated_at :datetime</text>
</g>
<!-- Game -->
<g id="node3" class="node">
<title>Game</title>
<path fill="none" stroke="#000000" d="M237.2478,-207.5C237.2478,-207.5 350.1277,-207.5 350.1277,-207.5 356.1277,-207.5 362.1277,-213.5 362.1277,-219.5 362.1277,-219.5 362.1277,-379.5 362.1277,-379.5 362.1277,-385.5 356.1277,-391.5 350.1277,-391.5 350.1277,-391.5 237.2478,-391.5 237.2478,-391.5 231.2478,-391.5 225.2478,-385.5 225.2478,-379.5 225.2478,-379.5 225.2478,-219.5 225.2478,-219.5 225.2478,-213.5 231.2478,-207.5 237.2478,-207.5"/>
<text text-anchor="middle" x="293.6877" y="-376.3" font-family="Times,serif" font-size="14.00" fill="#000000">Game</text>
<polyline fill="none" stroke="#000000" points="225.2478,-369.5 362.1277,-369.5 "/>
<text text-anchor="start" x="233.2478" y="-354.3" font-family="Times,serif" font-size="14.00" fill="#000000">id :INTEGER</text>
<text text-anchor="start" x="233.2478" y="-340.3" font-family="Times,serif" font-size="14.00" fill="#000000">team1_name :varchar</text>
<text text-anchor="start" x="233.2478" y="-326.3" font-family="Times,serif" font-size="14.00" fill="#000000">team2_name :varchar</text>
<text text-anchor="start" x="233.2478" y="-312.3" font-family="Times,serif" font-size="14.00" fill="#000000">team1_city :varchar</text>
<text text-anchor="start" x="233.2478" y="-298.3" font-family="Times,serif" font-size="14.00" fill="#000000">team2_city :varchar</text>
<text text-anchor="start" x="233.2478" y="-284.3" font-family="Times,serif" font-size="14.00" fill="#000000">date :datetime</text>
<text text-anchor="start" x="233.2478" y="-270.3" font-family="Times,serif" font-size="14.00" fill="#000000">created_at :datetime</text>
<text text-anchor="start" x="233.2478" y="-256.3" font-family="Times,serif" font-size="14.00" fill="#000000">updated_at :datetime</text>
<text text-anchor="start" x="233.2478" y="-242.3" font-family="Times,serif" font-size="14.00" fill="#000000">game_city :varchar</text>
<text text-anchor="start" x="233.2478" y="-228.3" font-family="Times,serif" font-size="14.00" fill="#000000">game_state :varchar</text>
<text text-anchor="start" x="233.2478" y="-214.3" font-family="Times,serif" font-size="14.00" fill="#000000">game_arena :varchar</text>
</g>
<!-- Game&#45;&gt;Comment -->
<g id="edge1" class="edge">
<title>Game&#45;&gt;Comment</title>
<path fill="none" stroke="#ae6442" d="M336.0712,-199.8538C340.8692,-188.5733 345.7321,-177.1404 350.4571,-166.0316"/>
<ellipse fill="none" stroke="#ae6442" cx="334.4372" cy="-203.6955" rx="4" ry="4"/>
<polygon fill="#ae6442" stroke="#ae6442" points="350.4751,-165.9891 358.5302,-158.5482 352.4322,-161.388 354.3892,-156.7869 354.3892,-156.7869 354.3892,-156.7869 352.4322,-161.388 350.2483,-155.0255 350.4751,-165.9891 350.4751,-165.9891"/>
</g>
<!-- User -->
<g id="node4" class="node">
<title>User</title>
<path fill="none" stroke="#000000" d="M392.4099,-193.5C392.4099,-193.5 572.9656,-193.5 572.9656,-193.5 578.9656,-193.5 584.9656,-199.5 584.9656,-205.5 584.9656,-205.5 584.9656,-393.5 584.9656,-393.5 584.9656,-399.5 578.9656,-405.5 572.9656,-405.5 572.9656,-405.5 392.4099,-405.5 392.4099,-405.5 386.4099,-405.5 380.4099,-399.5 380.4099,-393.5 380.4099,-393.5 380.4099,-205.5 380.4099,-205.5 380.4099,-199.5 386.4099,-193.5 392.4099,-193.5"/>
<text text-anchor="middle" x="482.6877" y="-390.3" font-family="Times,serif" font-size="14.00" fill="#000000">User</text>
<polyline fill="none" stroke="#000000" points="380.4099,-383.5 584.9656,-383.5 "/>
<text text-anchor="start" x="388.4099" y="-368.3" font-family="Times,serif" font-size="14.00" fill="#000000">id :INTEGER</text>
<text text-anchor="start" x="388.4099" y="-354.3" font-family="Times,serif" font-size="14.00" fill="#000000">email :varchar</text>
<text text-anchor="start" x="388.4099" y="-340.3" font-family="Times,serif" font-size="14.00" fill="#000000">encrypted_password :varchar</text>
<text text-anchor="start" x="388.4099" y="-326.3" font-family="Times,serif" font-size="14.00" fill="#000000">reset_password_token :varchar</text>
<text text-anchor="start" x="388.4099" y="-312.3" font-family="Times,serif" font-size="14.00" fill="#000000">reset_password_sent_at :datetime</text>
<text text-anchor="start" x="388.4099" y="-298.3" font-family="Times,serif" font-size="14.00" fill="#000000">remember_created_at :datetime</text>
<text text-anchor="start" x="388.4099" y="-284.3" font-family="Times,serif" font-size="14.00" fill="#000000">sign_in_count :integer</text>
<text text-anchor="start" x="388.4099" y="-270.3" font-family="Times,serif" font-size="14.00" fill="#000000">current_sign_in_at :datetime</text>
<text text-anchor="start" x="388.4099" y="-256.3" font-family="Times,serif" font-size="14.00" fill="#000000">last_sign_in_at :datetime</text>
<text text-anchor="start" x="388.4099" y="-242.3" font-family="Times,serif" font-size="14.00" fill="#000000">current_sign_in_ip :varchar</text>
<text text-anchor="start" x="388.4099" y="-228.3" font-family="Times,serif" font-size="14.00" fill="#000000">last_sign_in_ip :varchar</text>
<text text-anchor="start" x="388.4099" y="-214.3" font-family="Times,serif" font-size="14.00" fill="#000000">created_at :datetime</text>
<text text-anchor="start" x="388.4099" y="-200.3" font-family="Times,serif" font-size="14.00" fill="#000000">updated_at :datetime</text>
</g>
<!-- User&#45;&gt;Comment -->
<g id="edge2" class="edge">
<title>User&#45;&gt;Comment</title>
<path fill="none" stroke="#02fcf7" d="M433.7797,-185.7245C430.9541,-179.1512 428.1351,-172.5933 425.3628,-166.1441"/>
<ellipse fill="none" stroke="#02fcf7" cx="435.4167" cy="-189.5327" rx="4" ry="4"/>
<polygon fill="#02fcf7" stroke="#02fcf7" points="425.2885,-165.971 425.4734,-155.0067 423.3138,-161.3774 421.3392,-156.7839 421.3392,-156.7839 421.3392,-156.7839 423.3138,-161.3774 417.205,-158.561 425.2885,-165.971 425.2885,-165.971"/>
</g>
</g>
</svg>
