<?xml version="1.0" encoding="UTF-8" standalone="no"?>
<!DOCTYPE svg PUBLIC "-//W3C//DTD SVG 1.1//EN"
 "http://www.w3.org/Graphics/SVG/1.1/DTD/svg11.dtd">
<!-- Generated by graphviz version 2.40.1 (20161225.0304)
 -->
<!-- Title: models_diagram Pages: 1 -->
<svg width="367pt" height="153pt"
 viewBox="0.00 0.00 367.45 153.00" xmlns="http://www.w3.org/2000/svg" xmlns:xlink="http://www.w3.org/1999/xlink">
<g id="graph0" class="graph" transform="scale(1 1) rotate(0) translate(4 149)">
<title>models_diagram</title>
<polygon fill="transparent" stroke="transparent" points="-4,4 -4,-149 363.4497,-149 363.4497,4 -4,4"/>
<!-- _diagram_info -->
<g id="node1" class="node">
<title>_diagram_info</title>
<text text-anchor="start" x="8" y="-130.6" font-family="Times,serif" font-size="13.00" fill="#000000">Models diagram</text>
<text text-anchor="start" x="8" y="-117.6" font-family="Times,serif" font-size="13.00" fill="#000000">Date: Dec 13 2017 &#45; 16:08</text>
<text text-anchor="start" x="8" y="-104.6" font-family="Times,serif" font-size="13.00" fill="#000000">Migration version: 20171129235053</text>
<text text-anchor="start" x="8" y="-91.6" font-family="Times,serif" font-size="13.00" fill="#000000">Generated by RailRoady 1.5.3</text>
<text text-anchor="start" x="8" y="-78.6" font-family="Times,serif" font-size="13.00" fill="#000000">http://railroady.prestonlee.com</text>
</g>
<!-- Comment -->
<g id="node2" class="node">
<title>Comment</title>
<ellipse fill="none" stroke="#000000" cx="294.4497" cy="-18" rx="44.9768" ry="18"/>
<text text-anchor="middle" x="294.4497" y="-13.8" font-family="Times,serif" font-size="14.00" fill="#000000">Comment</text>
</g>
<!-- Game -->
<g id="node3" class="node">
<title>Game</title>
<ellipse fill="none" stroke="#000000" cx="256.4497" cy="-108.5" rx="31.4462" ry="18"/>
<text text-anchor="middle" x="256.4497" y="-104.3" font-family="Times,serif" font-size="14.00" fill="#000000">Game</text>
</g>
<!-- Game&#45;&gt;Comment -->
<g id="edge1" class="edge">
<title>Game&#45;&gt;Comment</title>
<path fill="none" stroke="#860ad2" d="M267.1037,-83.1266C272.0436,-71.362 277.9227,-57.3603 282.9617,-45.3596"/>
<ellipse fill="none" stroke="#860ad2" cx="265.5059" cy="-86.932" rx="4" ry="4"/>
<polygon fill="#860ad2" stroke="#860ad2" points="283.0862,-45.0629 291.1068,-37.5849 285.022,-40.4528 286.9577,-35.8427 286.9577,-35.8427 286.9577,-35.8427 285.022,-40.4528 282.8086,-34.1006 283.0862,-45.0629 283.0862,-45.0629"/>
</g>
<!-- User -->
<g id="node4" class="node">
<title>User</title>
<ellipse fill="none" stroke="#000000" cx="332.4497" cy="-108.5" rx="27" ry="18"/>
<text text-anchor="middle" x="332.4497" y="-104.3" font-family="Times,serif" font-size="14.00" fill="#000000">User</text>
</g>
<!-- User&#45;&gt;Comment -->
<g id="edge2" class="edge">
<title>User&#45;&gt;Comment</title>
<path fill="none" stroke="#018b6c" d="M321.9795,-83.5644C316.987,-71.6744 311.003,-57.423 305.8911,-45.2487"/>
<ellipse fill="none" stroke="#018b6c" cx="323.5743" cy="-87.3626" rx="4" ry="4"/>
<polygon fill="#018b6c" stroke="#018b6c" points="305.8856,-45.2354 306.1632,-34.273 303.9499,-40.6253 302.0141,-36.0152 302.0141,-36.0152 302.0141,-36.0152 303.9499,-40.6253 297.865,-37.7574 305.8856,-45.2354 305.8856,-45.2354"/>
</g>
</g>
</svg>
