<?xml version="1.0" encoding="UTF-8" standalone="no"?>
<!DOCTYPE svg PUBLIC "-//W3C//DTD SVG 1.1//EN"
 "http://www.w3.org/Graphics/SVG/1.1/DTD/svg11.dtd">
<!-- Generated by graphviz version 2.40.1 (20161225.0304)
 -->
<!-- Title: models_diagram Pages: 1 -->
<svg width="368pt" height="153pt"
 viewBox="0.00 0.00 367.69 153.00" xmlns="http://www.w3.org/2000/svg" xmlns:xlink="http://www.w3.org/1999/xlink">
<g id="graph0" class="graph" transform="scale(1 1) rotate(0) translate(4 149)">
<title>models_diagram</title>
<polygon fill="transparent" stroke="transparent" points="-4,4 -4,-149 363.6877,-149 363.6877,4 -4,4"/>
<!-- _diagram_info -->
<g id="node1" class="node">
<title>_diagram_info</title>
<text text-anchor="start" x="8" y="-130.6" font-family="Times,serif" font-size="13.00" fill="#000000">Models diagram</text>
<text text-anchor="start" x="8" y="-117.6" font-family="Times,serif" font-size="13.00" fill="#000000">Date: Oct 28 2017 &#45; 16:00</text>
<text text-anchor="start" x="8" y="-104.6" font-family="Times,serif" font-size="13.00" fill="#000000">Migration version: 20171027233745</text>
<text text-anchor="start" x="8" y="-91.6" font-family="Times,serif" font-size="13.00" fill="#000000">Generated by RailRoady 1.5.3</text>
<text text-anchor="start" x="8" y="-78.6" font-family="Times,serif" font-size="13.00" fill="#000000">http://railroady.prestonlee.com</text>
</g>
<!-- Comment -->
<g id="node2" class="node">
<title>Comment</title>
<ellipse fill="none" stroke="#000000" cx="294.6877" cy="-18" rx="44.9768" ry="18"/>
<text text-anchor="middle" x="294.6877" y="-13.8" font-family="Times,serif" font-size="14.00" fill="#000000">Comment</text>
</g>
<!-- Game -->
<g id="node3" class="node">
<title>Game</title>
<ellipse fill="none" stroke="#000000" cx="256.6877" cy="-108.5" rx="31.4462" ry="18"/>
<text text-anchor="middle" x="256.6877" y="-104.3" font-family="Times,serif" font-size="14.00" fill="#000000">Game</text>
</g>
<!-- Game&#45;&gt;Comment -->
<g id="edge1" class="edge">
<title>Game&#45;&gt;Comment</title>
<path fill="none" stroke="#83ec51" d="M267.3418,-83.1266C272.2816,-71.362 278.1608,-57.3603 283.1997,-45.3596"/>
<ellipse fill="none" stroke="#83ec51" cx="265.7439" cy="-86.932" rx="4" ry="4"/>
<polygon fill="#83ec51" stroke="#83ec51" points="283.3242,-45.0629 291.3448,-37.5849 285.26,-40.4528 287.1958,-35.8427 287.1958,-35.8427 287.1958,-35.8427 285.26,-40.4528 283.0467,-34.1006 283.3242,-45.0629 283.3242,-45.0629"/>
</g>
<!-- User -->
<g id="node4" class="node">
<title>User</title>
<ellipse fill="none" stroke="#000000" cx="332.6877" cy="-108.5" rx="27" ry="18"/>
<text text-anchor="middle" x="332.6877" y="-104.3" font-family="Times,serif" font-size="14.00" fill="#000000">User</text>
</g>
<!-- User&#45;&gt;Comment -->
<g id="edge2" class="edge">
<title>User&#45;&gt;Comment</title>
<path fill="none" stroke="#a196c0" d="M322.2175,-83.5644C317.2251,-71.6744 311.241,-57.423 306.1292,-45.2487"/>
<ellipse fill="none" stroke="#a196c0" cx="323.8123" cy="-87.3626" rx="4" ry="4"/>
<polygon fill="#a196c0" stroke="#a196c0" points="306.1236,-45.2354 306.4012,-34.273 304.1879,-40.6253 302.2521,-36.0152 302.2521,-36.0152 302.2521,-36.0152 304.1879,-40.6253 298.103,-37.7574 306.1236,-45.2354 306.1236,-45.2354"/>
</g>
</g>
</svg>
